<mxfile host="app.diagrams.net" agent="Mozilla/5.0 (Windows NT 10.0; Win64; x64) AppleWebKit/537.36 (KHTML, like Gecko) Chrome/127.0.0.0 Safari/537.36" version="24.7.8">
  <diagram name="Página-1" id="GdQ1v0_vXEsZp5zluXtw">
    <mxGraphModel dx="880" dy="1637" grid="1" gridSize="10" guides="1" tooltips="1" connect="1" arrows="1" fold="1" page="1" pageScale="1" pageWidth="827" pageHeight="1169" math="0" shadow="0">
      <root>
        <mxCell id="0" />
        <mxCell id="1" parent="0" />
        <mxCell id="tm_tPIgrOeYtnqWqFzLi-1" value="&lt;font style=&quot;font-size: 24px;&quot;&gt;URNA POR ARTUR VALENTE&lt;/font&gt;" style="rounded=0;whiteSpace=wrap;html=1;" vertex="1" parent="1">
          <mxGeometry x="360" y="-140" width="530" height="60" as="geometry" />
        </mxCell>
        <mxCell id="tm_tPIgrOeYtnqWqFzLi-2" value="&lt;div style=&quot;&quot;&gt;&lt;span style=&quot;font-size: 24px;&quot;&gt;TAREFAS&lt;/span&gt;&lt;/div&gt;&lt;div style=&quot;&quot;&gt;&lt;ul&gt;&lt;li&gt;Validar título = mesário&lt;/li&gt;&lt;li&gt;Habilitar voto = mesário&lt;/li&gt;&lt;li&gt;Votar: Em branco = eleitor&lt;/li&gt;&lt;li&gt;Votar: Confirmar = eleitor&lt;/li&gt;&lt;li&gt;Imprimir relatório&lt;/li&gt;&lt;li&gt;Finalizar sessão = eleitor&lt;/li&gt;&lt;/ul&gt;&lt;/div&gt;" style="rounded=0;whiteSpace=wrap;html=1;" vertex="1" parent="1">
          <mxGeometry x="800" y="-10" width="530" height="220" as="geometry" />
        </mxCell>
        <mxCell id="tm_tPIgrOeYtnqWqFzLi-3" value="&lt;span style=&quot;font-size: 24px;&quot;&gt;LOGICA&lt;/span&gt;" style="rounded=0;whiteSpace=wrap;html=1;rotation=90;" vertex="1" parent="1">
          <mxGeometry x="600" y="70" width="220" height="60" as="geometry" />
        </mxCell>
        <mxCell id="tm_tPIgrOeYtnqWqFzLi-4" value="" style="endArrow=classic;html=1;rounded=0;" edge="1" parent="1">
          <mxGeometry width="50" height="50" relative="1" as="geometry">
            <mxPoint x="760" y="-10" as="sourcePoint" />
            <mxPoint x="760" y="210" as="targetPoint" />
          </mxGeometry>
        </mxCell>
        <mxCell id="tm_tPIgrOeYtnqWqFzLi-5" value="Votar: Em branco" style="strokeWidth=2;html=1;shape=mxgraph.flowchart.start_1;whiteSpace=wrap;" vertex="1" parent="1">
          <mxGeometry x="425" y="-40" width="130" height="80" as="geometry" />
        </mxCell>
        <mxCell id="tm_tPIgrOeYtnqWqFzLi-7" value="Votar: Confirmar" style="strokeWidth=2;html=1;shape=mxgraph.flowchart.start_1;whiteSpace=wrap;" vertex="1" parent="1">
          <mxGeometry x="425" y="50" width="140" height="70" as="geometry" />
        </mxCell>
        <mxCell id="tm_tPIgrOeYtnqWqFzLi-10" value="Validar título&lt;span style=&quot;white-space: pre;&quot;&gt;&#x9;&lt;/span&gt;" style="strokeWidth=2;html=1;shape=mxgraph.flowchart.start_1;whiteSpace=wrap;" vertex="1" parent="1">
          <mxGeometry x="425" y="130" width="140" height="70" as="geometry" />
        </mxCell>
        <mxCell id="tm_tPIgrOeYtnqWqFzLi-12" value="Habilitar voto" style="strokeWidth=2;html=1;shape=mxgraph.flowchart.start_1;whiteSpace=wrap;" vertex="1" parent="1">
          <mxGeometry x="420" y="210" width="160" height="70" as="geometry" />
        </mxCell>
        <mxCell id="tm_tPIgrOeYtnqWqFzLi-13" value="Finalizar sessão" style="strokeWidth=2;html=1;shape=mxgraph.flowchart.start_1;whiteSpace=wrap;" vertex="1" parent="1">
          <mxGeometry x="430" y="290" width="140" height="70" as="geometry" />
        </mxCell>
        <mxCell id="tm_tPIgrOeYtnqWqFzLi-15" value="USUÁRIO" style="shape=umlActor;verticalLabelPosition=bottom;verticalAlign=top;html=1;" vertex="1" parent="1">
          <mxGeometry x="250" y="130" width="30" height="60" as="geometry" />
        </mxCell>
        <mxCell id="tm_tPIgrOeYtnqWqFzLi-16" value="Imprimir relatório" style="strokeWidth=2;html=1;shape=mxgraph.flowchart.start_1;whiteSpace=wrap;" vertex="1" parent="1">
          <mxGeometry x="440" y="370" width="140" height="70" as="geometry" />
        </mxCell>
        <mxCell id="tm_tPIgrOeYtnqWqFzLi-19" value="" style="endArrow=none;html=1;rounded=0;entryX=0;entryY=0.5;entryDx=0;entryDy=0;entryPerimeter=0;" edge="1" parent="1" target="tm_tPIgrOeYtnqWqFzLi-5">
          <mxGeometry width="50" height="50" relative="1" as="geometry">
            <mxPoint x="280" y="160" as="sourcePoint" />
            <mxPoint x="330" y="110" as="targetPoint" />
          </mxGeometry>
        </mxCell>
        <mxCell id="tm_tPIgrOeYtnqWqFzLi-20" value="" style="endArrow=none;html=1;rounded=0;entryX=0;entryY=0.5;entryDx=0;entryDy=0;entryPerimeter=0;" edge="1" parent="1" target="tm_tPIgrOeYtnqWqFzLi-7">
          <mxGeometry width="50" height="50" relative="1" as="geometry">
            <mxPoint x="285" y="180" as="sourcePoint" />
            <mxPoint x="430" y="20" as="targetPoint" />
          </mxGeometry>
        </mxCell>
        <mxCell id="tm_tPIgrOeYtnqWqFzLi-21" value="" style="endArrow=none;html=1;rounded=0;entryX=0;entryY=0.5;entryDx=0;entryDy=0;entryPerimeter=0;" edge="1" parent="1" target="tm_tPIgrOeYtnqWqFzLi-10">
          <mxGeometry width="50" height="50" relative="1" as="geometry">
            <mxPoint x="295" y="190" as="sourcePoint" />
            <mxPoint x="435" y="95" as="targetPoint" />
          </mxGeometry>
        </mxCell>
        <mxCell id="tm_tPIgrOeYtnqWqFzLi-22" value="" style="endArrow=none;html=1;rounded=0;entryX=0;entryY=0.5;entryDx=0;entryDy=0;entryPerimeter=0;" edge="1" parent="1" target="tm_tPIgrOeYtnqWqFzLi-12">
          <mxGeometry width="50" height="50" relative="1" as="geometry">
            <mxPoint x="305" y="200" as="sourcePoint" />
            <mxPoint x="435" y="175" as="targetPoint" />
          </mxGeometry>
        </mxCell>
        <mxCell id="tm_tPIgrOeYtnqWqFzLi-23" value="" style="endArrow=none;html=1;rounded=0;entryX=0;entryY=0.5;entryDx=0;entryDy=0;entryPerimeter=0;" edge="1" parent="1" target="tm_tPIgrOeYtnqWqFzLi-13">
          <mxGeometry width="50" height="50" relative="1" as="geometry">
            <mxPoint x="315" y="210" as="sourcePoint" />
            <mxPoint x="430" y="255" as="targetPoint" />
          </mxGeometry>
        </mxCell>
        <mxCell id="tm_tPIgrOeYtnqWqFzLi-24" value="" style="endArrow=none;html=1;rounded=0;entryX=0;entryY=0.5;entryDx=0;entryDy=0;entryPerimeter=0;" edge="1" parent="1" target="tm_tPIgrOeYtnqWqFzLi-16">
          <mxGeometry width="50" height="50" relative="1" as="geometry">
            <mxPoint x="299" y="230" as="sourcePoint" />
            <mxPoint x="414" y="345" as="targetPoint" />
          </mxGeometry>
        </mxCell>
      </root>
    </mxGraphModel>
  </diagram>
</mxfile>
